M48
INCH,TZ
T1C0.0157
T2C0.0200
T3C0.0276
T4C0.0394
%
G90
G05
T1
X21750Y-30250
X21870Y-31050
X21890Y-31980
X22280Y-27380
X22380Y-24320
X22500Y-30250
X22840Y-27380
X22970Y-24320
X23250Y-30250
X23370Y-27380
X23480Y-24320
X24010Y-27380
X24020Y-24320
X25130Y-27370
X25960Y-27370
X26860Y-27370
X27380Y-29560
X27630Y-33170
X27800Y-27370
X28020Y-34270
X28250Y-29560
X28620Y-27370
X30700Y-31920
X31147Y-31038
X31153Y-30423
X31188Y-30050
X31348Y-27131
X31502Y-29803
X31518Y-30297
X31534Y-30995
X32770Y-29460
X33470Y-29460
X33760Y-25290
X34053Y-21259
X34170Y-29460
X34210Y-26410
X34220Y-28270
X34739Y-21265
X35070Y-26410
X35370Y-25290
X35500Y-31490
X35620Y-26410
X35710Y-29460
X35720Y-28250
X35906Y-32836
X36635Y-32852
X36660Y-25290
X36680Y-26410
X37070Y-28250
X37080Y-29460
X37380Y-23060
X37390Y-24160
X37470Y-25290
X37470Y-26410
X37470Y-28250
X37470Y-29460
X38260Y-32761
X38840Y-31540
X38976Y-21288
X39122Y-23003
X39170Y-24170
X40120Y-27720
X40135Y-34543
X40730Y-34538
X42134Y-27392
X43110Y-26340
X43548Y-27430
X50000Y-21250
X50000Y-22500
X50000Y-24000
X50000Y-25250
X50000Y-26750
X50000Y-28250
X50000Y-31000
X50000Y-33500
X50000Y-35250
T2
X24759Y-25851
X24765Y-28846
X25163Y-25853
X25165Y-28840
X25565Y-25851
X25565Y-28840
X27488Y-24964
X27630Y-31270
X28098Y-23604
X28830Y-28860
X28874Y-24434
X30000Y-24390
X30118Y-31274
X30120Y-35510
X30688Y-27134
X31308Y-23644
X32692Y-30684
X32708Y-27544
X33053Y-25848
X33410Y-28846
X34130Y-25852
X34724Y-28843
X35898Y-34496
X36096Y-25847
X36683Y-34508
X36684Y-28843
X38320Y-34460
X38856Y-25853
X39879Y-28855
X40030Y-26610
X40038Y-25174
X42588Y-25374
X42684Y-31349
X43833Y-29249
T3
X17870Y-18500
X18185Y-18028
X18500Y-18500
X18815Y-18028
X19130Y-18500
T4
X18000Y-21000
X18000Y-22000
X18000Y-23000
X18000Y-24000
X18000Y-25000
X18000Y-26000
X18000Y-27000
X18000Y-28000
X18000Y-29000
X18000Y-30000
X18000Y-31000
X18000Y-32000
X18000Y-33000
X18000Y-34000
X18000Y-35000
X18000Y-36000
X18000Y-37000
X18000Y-38000
X18000Y-39000
X18000Y-40000
X19000Y-21000
X19000Y-22000
X19000Y-23000
X19000Y-24000
X19000Y-25000
X19000Y-26000
X19000Y-27000
X19000Y-28000
X19000Y-29000
X19000Y-30000
X19000Y-31000
X19000Y-32000
X19000Y-33000
X19000Y-34000
X19000Y-35000
X19000Y-36000
X19000Y-37000
X19000Y-38000
X19000Y-39000
X19000Y-40000
X14000Y-21000
X14000Y-22000
X14000Y-23000
X14000Y-24000
X14000Y-25000
X14000Y-26000
X14000Y-27000
X14000Y-28000
X14000Y-29000
X14000Y-30000
X14000Y-31000
X14000Y-32000
X14000Y-33000
X14000Y-34000
X14000Y-35000
X14000Y-36000
X14000Y-37000
X14000Y-38000
X14000Y-39000
X14000Y-40000
X15000Y-21000
X15000Y-22000
X15000Y-23000
X15000Y-24000
X15000Y-25000
X15000Y-26000
X15000Y-27000
X15000Y-28000
X15000Y-29000
X15000Y-30000
X15000Y-31000
X15000Y-32000
X15000Y-33000
X15000Y-34000
X15000Y-35000
X15000Y-36000
X15000Y-37000
X15000Y-38000
X15000Y-39000
X15000Y-40000
X22000Y-38500
X22000Y-39500
X23000Y-38500
X23000Y-39500
X24000Y-38500
X24000Y-39500
X25000Y-38500
X25000Y-39500
X26000Y-38500
X26000Y-39500
X27000Y-38500
X27000Y-39500
X28000Y-38500
X28000Y-39500
X29000Y-38500
X29000Y-39500
X30000Y-38500
X30000Y-39500
X31000Y-38500
X31000Y-39500
X32000Y-38500
X32000Y-39500
X33000Y-38500
X33000Y-39500
X34000Y-38500
X34000Y-39500
X35000Y-38500
X35000Y-39500
X36000Y-38500
X36000Y-39500
X37000Y-38500
X37000Y-39500
X38000Y-38500
X38000Y-39500
X39000Y-38500
X39000Y-39500
X40000Y-38500
X40000Y-39500
X41000Y-38500
X41000Y-39500
X42000Y-38500
X42000Y-39500
X43000Y-38500
X43000Y-39500
X44000Y-38500
X44000Y-39500
X45000Y-38500
X45000Y-39500
X46000Y-38500
X46000Y-39500
X47000Y-38500
X47000Y-39500
X48000Y-38500
X48000Y-39500
X49000Y-38500
X49000Y-39500
X50000Y-38500
X50000Y-39500
X51000Y-38500
X51000Y-39500
X22000Y-16500
X22000Y-17500
X23000Y-16500
X23000Y-17500
X24000Y-16500
X24000Y-17500
X25000Y-16500
X25000Y-17500
X26000Y-16500
X26000Y-17500
X27000Y-16500
X27000Y-17500
X28000Y-16500
X28000Y-17500
X29000Y-16500
X29000Y-17500
X30000Y-16500
X30000Y-17500
X31000Y-16500
X31000Y-17500
X32000Y-16500
X32000Y-17500
X33000Y-16500
X33000Y-17500
X34000Y-16500
X34000Y-17500
X35000Y-16500
X35000Y-17500
X36000Y-16500
X36000Y-17500
X37000Y-16500
X37000Y-17500
X38000Y-16500
X38000Y-17500
X39000Y-16500
X39000Y-17500
X40000Y-16500
X40000Y-17500
X41000Y-16500
X41000Y-17500
X42000Y-16500
X42000Y-17500
X43000Y-16500
X43000Y-17500
X44000Y-16500
X44000Y-17500
X45000Y-16500
X45000Y-17500
X46000Y-16500
X46000Y-17500
X47000Y-16500
X47000Y-17500
X48000Y-16500
X48000Y-17500
X49000Y-16500
X49000Y-17500
X50000Y-16500
X50000Y-17500
X51000Y-16500
X51000Y-17500
X21500Y-21000
X22500Y-21000
X25500Y-31000
X25500Y-32000
X25500Y-33000
X25500Y-34000
X25500Y-35000
X25500Y-36000
X26500Y-31000
X26500Y-32000
X26500Y-33000
X26500Y-34000
X26500Y-35000
X26500Y-36000
T3
G00X17063Y-16276
M15
G01X17063Y-16748
M16
G05
G00X19937Y-16276
M15
G01X19937Y-16748
M16
G05
T0
M30
