M48
; DRILL file {KiCad 5.1.5+dfsg1-2build2} date Sun Jun  4 15:32:34 2023
; FORMAT={-:-/ absolute / metric / decimal}
; #@! TF.CreationDate,2023-06-04T15:32:34-05:00
; #@! TF.GenerationSoftware,Kicad,Pcbnew,5.1.5+dfsg1-2build2
; #@! TF.FileFunction,Plated,1,4,PTH
FMAT,2
METRIC
T1C0.400
T2C0.508
T3C0.600
T4C1.000
T5C1.200
%
G90
G05
T1
X34.7Y-43.15
X36.2Y-40.87
X36.2Y-45.46
X37.67Y-43.19
X46.13Y-47.2
X46.14Y-49.25
X48.76Y-47.21
X48.76Y-49.37
X49.863Y-97.663
X49.878Y-100.211
X50.084Y-72.431
X50.101Y-83.889
X50.117Y-84.828
X55.55Y-78.867
X55.601Y-81.229
X56.591Y-64.465
X56.845Y-56.693
X58.014Y-64.465
X58.344Y-56.693
X59.36Y-64.465
X59.639Y-56.693
X60.985Y-64.465
X61.011Y-56.693
X62.578Y-58.245
X62.652Y-65.857
X63.429Y-58.232
X63.48Y-65.847
X63.83Y-64.44
X64.27Y-58.232
X64.318Y-65.839
X64.849Y-40.516
X65.938Y-64.44
X67.903Y-64.326
X68.81Y-88.4
X69.268Y-66.015
X69.71Y-86.97
X69.893Y-101.816
X70.53Y-67.16
X72.83Y-90.16
X72.93Y-69.63
X73.863Y-68.275
X74.13Y-87.64
X74.676Y-66.904
X74.854Y-40.483
X75.35Y-92.7
X76.225Y-52.09
X77.57Y-87.15
X77.575Y-88.415
X77.978Y-81.077
X79.128Y-77.275
X79.217Y-76.327
X79.472Y-52.037
X80.014Y-75.698
X80.046Y-101.704
X80.057Y-76.956
X80.081Y-47.97
X80.096Y-78.728
X82.664Y-52.037
X83.185Y-69.215
X83.38Y-61.49
X83.566Y-64.262
X83.85Y-85.3
X83.88Y-83.84
X84.34Y-79.92
X85.156Y-40.582
X86.33Y-74.87
X86.495Y-53.998
X86.62Y-71.5
X88.237Y-54.013
X90.15Y-74.95
X90.17Y-79.985
X90.226Y-101.897
X90.54Y-71.44
X90.744Y-93.142
X93.18Y-93.51
X94.275Y-79.71
X94.68Y-75.03
X94.945Y-58.572
X94.971Y-61.366
X95.23Y-71.28
X95.26Y-40.648
X96.073Y-79.632
X97.368Y-95.054
X97.99Y-79.1
X98.654Y-80.112
X98.999Y-54.072
X99.37Y-58.428
X99.492Y-61.392
X99.58Y-75.26
X99.68Y-79.62
X100.599Y-101.816
X100.838Y-89.535
X101.943Y-87.739
X102.372Y-53.459
X102.857Y-80.447
X103.454Y-87.727
X103.7Y-53.94
X104.092Y-95.159
X104.371Y-80.432
X105.219Y-88.01
X105.364Y-40.681
X106.06Y-52.38
X106.07Y-55.56
X106.436Y-95.189
X106.87Y-79.634
X107.991Y-47.955
X108.5Y-53.98
X109.15Y-66.631
X110.167Y-47.978
X110.299Y-86.487
X110.505Y-101.897
X110.612Y-69.672
X110.698Y-53.988
X110.934Y-84.963
X111.569Y-83.439
X112.204Y-81.915
X112.84Y-80.391
X113.579Y-50.643
X114.3Y-78.867
X115.631Y-40.648
X116.111Y-48.859
X118.504Y-92.243
X118.562Y-48.796
X118.613Y-77.216
X119.05Y-60.49
X119.969Y-77.178
X120.688Y-101.788
X121.343Y-77.183
X121.475Y-78.867
X121.475Y-80.391
X121.475Y-81.915
X121.475Y-83.439
X121.475Y-84.963
X121.475Y-86.487
X121.475Y-88.011
X121.475Y-89.535
X121.49Y-53.42
X122.9Y-59.03
X127.6Y-58.96
X127.88Y-51.11
X127.9Y-53.31
X129.54Y-78.867
X129.54Y-80.391
X129.54Y-81.915
X129.54Y-83.439
X129.54Y-84.963
X129.54Y-86.487
X129.54Y-88.011
X129.54Y-89.535
X131.04Y-51.12
T2
X62.515Y-91.464
X62.832Y-69.365
X62.888Y-60.582
X62.903Y-68.189
X62.916Y-61.585
X63.848Y-69.365
X63.914Y-60.587
X63.919Y-68.174
X63.927Y-61.58
X64.864Y-69.365
X64.935Y-60.582
X64.935Y-68.174
X64.948Y-61.585
X65.88Y-69.365
X65.945Y-60.592
X65.945Y-68.184
X65.959Y-61.59
X69.775Y-75.814
X69.805Y-81.184
X71.369Y-59.954
X73.34Y-62.062
X73.445Y-75.894
X73.465Y-78.684
X74.455Y-78.694
X74.46Y-75.86
X74.5Y-81.47
X75.72Y-72.63
X75.89Y-78.91
X76.2Y-61.951
X79.44Y-92.85
X79.522Y-60.056
X79.72Y-81.1
X80.24Y-83.81
X80.27Y-85.29
X82.27Y-88.41
X83.05Y-71.95
X83.17Y-66.45
X83.19Y-78.55
X83.968Y-74.897
X84.861Y-73.269
X86.69Y-61.49
X88.199Y-73.261
X91.181Y-87.62
X91.201Y-83.403
X93.175Y-87.65
X93.177Y-73.261
X97.18Y-79.92
X97.29Y-83.15
X97.333Y-87.528
X98.68Y-62.66
X100.33Y-70.485
X101.293Y-73.292
X101.6Y-72.06
X101.63Y-68.92
X101.676Y-67.589
X101.697Y-63.942
X108.417Y-79.626
X108.902Y-63.5
X109.982Y-63.5
X111.336Y-74.292
X113.25Y-60.43
T4
X45.72Y-53.34
X45.72Y-55.88
X45.72Y-58.42
X45.72Y-60.96
X45.72Y-63.5
X45.72Y-66.04
X45.72Y-68.58
X45.72Y-71.12
X45.72Y-73.66
X45.72Y-76.2
X45.72Y-78.74
X45.72Y-81.28
X45.72Y-83.82
X45.72Y-86.36
X45.72Y-88.9
X45.72Y-91.44
X45.72Y-93.98
X45.72Y-96.52
X45.72Y-99.06
X45.72Y-101.6
X48.26Y-53.34
X48.26Y-55.88
X48.26Y-58.42
X48.26Y-60.96
X48.26Y-63.5
X48.26Y-66.04
X48.26Y-68.58
X48.26Y-71.12
X48.26Y-73.66
X48.26Y-76.2
X48.26Y-78.74
X48.26Y-81.28
X48.26Y-83.82
X48.26Y-86.36
X48.26Y-88.9
X48.26Y-91.44
X48.26Y-93.98
X48.26Y-96.52
X48.26Y-99.06
X48.26Y-101.6
X55.88Y-41.91
X55.88Y-44.45
X58.42Y-41.91
X58.42Y-44.45
X60.96Y-41.91
X60.96Y-44.45
X63.5Y-41.91
X63.5Y-44.45
X66.04Y-41.91
X66.04Y-44.45
X68.58Y-41.91
X68.58Y-44.45
X71.12Y-41.91
X71.12Y-44.45
X73.66Y-41.91
X73.66Y-44.45
X76.2Y-41.91
X76.2Y-44.45
X78.74Y-41.91
X78.74Y-44.45
X81.28Y-41.91
X81.28Y-44.45
X83.82Y-41.91
X83.82Y-44.45
X86.36Y-41.91
X86.36Y-44.45
X88.9Y-41.91
X88.9Y-44.45
X91.44Y-41.91
X91.44Y-44.45
X93.98Y-41.91
X93.98Y-44.45
X96.52Y-41.91
X96.52Y-44.45
X99.06Y-41.91
X99.06Y-44.45
X101.6Y-41.91
X101.6Y-44.45
X104.14Y-41.91
X104.14Y-44.45
X106.68Y-41.91
X106.68Y-44.45
X109.22Y-41.91
X109.22Y-44.45
X111.76Y-41.91
X111.76Y-44.45
X114.3Y-41.91
X114.3Y-44.45
X116.84Y-41.91
X116.84Y-44.45
X119.38Y-41.91
X119.38Y-44.45
X121.92Y-41.91
X121.92Y-44.45
X124.46Y-41.91
X124.46Y-44.45
X127.0Y-41.91
X127.0Y-44.45
X129.54Y-41.91
X129.54Y-44.45
X35.56Y-53.34
X35.56Y-55.88
X35.56Y-58.42
X35.56Y-60.96
X35.56Y-63.5
X35.56Y-66.04
X35.56Y-68.58
X35.56Y-71.12
X35.56Y-73.66
X35.56Y-76.2
X35.56Y-78.74
X35.56Y-81.28
X35.56Y-83.82
X35.56Y-86.36
X35.56Y-88.9
X35.56Y-91.44
X35.56Y-93.98
X35.56Y-96.52
X35.56Y-99.06
X35.56Y-101.6
X38.1Y-53.34
X38.1Y-55.88
X38.1Y-58.42
X38.1Y-60.96
X38.1Y-63.5
X38.1Y-66.04
X38.1Y-68.58
X38.1Y-71.12
X38.1Y-73.66
X38.1Y-76.2
X38.1Y-78.74
X38.1Y-81.28
X38.1Y-83.82
X38.1Y-86.36
X38.1Y-88.9
X38.1Y-91.44
X38.1Y-93.98
X38.1Y-96.52
X38.1Y-99.06
X38.1Y-101.6
X64.77Y-74.93
X64.77Y-77.47
X64.77Y-80.01
X64.77Y-82.55
X64.77Y-85.09
X64.77Y-87.63
X64.77Y-90.17
X64.77Y-92.71
X67.31Y-74.93
X67.31Y-77.47
X67.31Y-80.01
X67.31Y-82.55
X67.31Y-85.09
X67.31Y-87.63
X67.31Y-90.17
X67.31Y-92.71
X55.88Y-97.79
X55.88Y-100.33
X58.42Y-97.79
X58.42Y-100.33
X60.96Y-97.79
X60.96Y-100.33
X63.5Y-97.79
X63.5Y-100.33
X66.04Y-97.79
X66.04Y-100.33
X68.58Y-97.79
X68.58Y-100.33
X71.12Y-97.79
X71.12Y-100.33
X73.66Y-97.79
X73.66Y-100.33
X76.2Y-97.79
X76.2Y-100.33
X78.74Y-97.79
X78.74Y-100.33
X81.28Y-97.79
X81.28Y-100.33
X83.82Y-97.79
X83.82Y-100.33
X86.36Y-97.79
X86.36Y-100.33
X88.9Y-97.79
X88.9Y-100.33
X91.44Y-97.79
X91.44Y-100.33
X93.98Y-97.79
X93.98Y-100.33
X96.52Y-97.79
X96.52Y-100.33
X99.06Y-97.79
X99.06Y-100.33
X101.6Y-97.79
X101.6Y-100.33
X104.14Y-97.79
X104.14Y-100.33
X106.68Y-97.79
X106.68Y-100.33
X109.22Y-97.79
X109.22Y-100.33
X111.76Y-97.79
X111.76Y-100.33
X114.3Y-97.79
X114.3Y-100.33
X116.84Y-97.79
X116.84Y-100.33
X119.38Y-97.79
X119.38Y-100.33
X121.92Y-97.79
X121.92Y-100.33
X124.46Y-97.79
X124.46Y-100.33
X127.0Y-97.79
X127.0Y-100.33
X129.54Y-97.79
X129.54Y-100.33
X54.61Y-52.578
X57.15Y-52.578
T5
X121.861Y-70.474
X121.861Y-74.974
X128.361Y-70.474
X128.361Y-74.974
X121.861Y-62.092
X121.861Y-66.592
X128.361Y-62.092
X128.361Y-66.592
T3
X43.178Y-40.99G85X43.178Y-40.39
G05
X43.178Y-45.42G85X43.178Y-44.32
G05
X51.818Y-40.99G85X51.818Y-40.39
G05
X51.818Y-45.42G85X51.818Y-44.32
G05
T0
M30
