M48
INCH,TZ
T1C0.0157
T2C0.0200
T3C0.0276
T4C0.0394
T5C0.0472
%
G90
G05
T1
X19631Y-38450
X19637Y-39453
X19718Y-28516
X19725Y-33027
X19731Y-33397
X21870Y-31050
X21890Y-31980
X22280Y-25380
X22380Y-22320
X22840Y-25380
X22970Y-22320
X23370Y-25380
X23480Y-22320
X24010Y-25380
X24020Y-22320
X24637Y-22931
X24666Y-25928
X24972Y-22926
X24992Y-25924
X25130Y-25370
X25303Y-22926
X25322Y-25921
X25531Y-15951
X25960Y-25370
X26860Y-25370
X27271Y-25990
X27517Y-40085
X27562Y-35692
X27630Y-33170
X27737Y-26543
X27789Y-29534
X27800Y-27370
X28020Y-34270
X28195Y-29516
X28278Y-35687
X28620Y-27370
X29013Y-20530
X29080Y-26880
X29400Y-26340
X29470Y-15938
X30010Y-20508
X30700Y-31920
X31147Y-31038
X31153Y-30423
X31188Y-30050
X31288Y-20487
X31502Y-29803
X31514Y-40041
X31518Y-30297
X31528Y-18886
X31534Y-30995
X32545Y-20487
X32750Y-27250
X32770Y-29460
X32900Y-25300
X33470Y-29460
X33526Y-15977
X33760Y-25290
X34053Y-21259
X34170Y-29460
X34210Y-26410
X34220Y-28270
X34739Y-21265
X35070Y-26410
X35370Y-25290
X35500Y-31490
X35522Y-40117
X35620Y-26410
X35710Y-29460
X35720Y-28250
X35726Y-36670
X35906Y-32836
X36635Y-32852
X36660Y-25290
X36680Y-26410
X36685Y-36815
X37070Y-28250
X37080Y-29460
X37116Y-31382
X37380Y-23060
X37390Y-24160
X37470Y-25290
X37470Y-26410
X37470Y-28250
X37470Y-29460
X37504Y-16003
X37824Y-31351
X38260Y-32761
X38334Y-37423
X38840Y-31540
X38976Y-21288
X39122Y-23003
X39170Y-24170
X39500Y-27750
X39606Y-40085
X39700Y-35250
X40135Y-34543
X40304Y-21047
X40495Y-31672
X40730Y-34538
X40981Y-37464
X41091Y-31666
X41200Y-24925
X41425Y-34650
X41450Y-24350
X41482Y-16016
X41904Y-37476
X42075Y-31352
X42516Y-18880
X42973Y-26232
X43373Y-18889
X43425Y-34050
X43506Y-40117
X43548Y-27430
X43582Y-21255
X43675Y-33450
X43925Y-32850
X44175Y-32250
X44425Y-31650
X44716Y-19938
X45000Y-31050
X45524Y-16003
X45713Y-19236
X46655Y-36316
X46678Y-19211
X46698Y-30400
X46900Y-24975
X46900Y-25375
X47232Y-30385
X47515Y-40074
X47713Y-18402
X47773Y-30387
X47825Y-31050
X47825Y-31650
X47825Y-32250
X47825Y-32850
X47825Y-33450
X47825Y-34050
X47825Y-34650
X47825Y-35250
X48775Y-19027
X50000Y-21250
X50000Y-22500
X51000Y-31050
X51000Y-31650
X51000Y-32250
X51000Y-32850
X51000Y-33450
X51000Y-34050
X51000Y-34650
X51000Y-35250
T2
X24759Y-23851
X24765Y-26846
X25163Y-23853
X25165Y-26840
X25565Y-23851
X25565Y-26840
X27640Y-31280
X28098Y-23604
X28830Y-28860
X28874Y-24434
X30000Y-24390
X30118Y-31274
X30120Y-35510
X31308Y-23644
X32692Y-30684
X33053Y-25848
X33410Y-28846
X34130Y-25852
X34724Y-28843
X35898Y-34496
X36096Y-25847
X36683Y-34508
X36684Y-28843
X38320Y-34460
X38856Y-25853
X39879Y-28855
X40030Y-26610
X40038Y-25174
X42684Y-31349
X42875Y-25000
X43300Y-25000
X43725Y-25000
X43833Y-29249
T3
X17870Y-18500
X18185Y-18028
X18500Y-18500
X18815Y-18028
X19130Y-18500
T4
X25500Y-29500
X25500Y-30500
X25500Y-31500
X25500Y-32500
X25500Y-33500
X25500Y-34500
X25500Y-35500
X26500Y-29500
X26500Y-30500
X26500Y-31500
X26500Y-32500
X26500Y-33500
X26500Y-34500
X26500Y-35500
X21500Y-20000
X22500Y-20000
X22000Y-38500
X22000Y-39500
X23000Y-38500
X23000Y-39500
X24000Y-38500
X24000Y-39500
X25000Y-38500
X25000Y-39500
X26000Y-38500
X26000Y-39500
X27000Y-38500
X27000Y-39500
X28000Y-38500
X28000Y-39500
X29000Y-38500
X29000Y-39500
X30000Y-38500
X30000Y-39500
X31000Y-38500
X31000Y-39500
X32000Y-38500
X32000Y-39500
X33000Y-38500
X33000Y-39500
X34000Y-38500
X34000Y-39500
X35000Y-38500
X35000Y-39500
X36000Y-38500
X36000Y-39500
X37000Y-38500
X37000Y-39500
X38000Y-38500
X38000Y-39500
X39000Y-38500
X39000Y-39500
X40000Y-38500
X40000Y-39500
X41000Y-38500
X41000Y-39500
X42000Y-38500
X42000Y-39500
X43000Y-38500
X43000Y-39500
X44000Y-38500
X44000Y-39500
X45000Y-38500
X45000Y-39500
X46000Y-38500
X46000Y-39500
X47000Y-38500
X47000Y-39500
X48000Y-38500
X48000Y-39500
X49000Y-38500
X49000Y-39500
X50000Y-38500
X50000Y-39500
X51000Y-38500
X51000Y-39500
X22000Y-16500
X22000Y-17500
X23000Y-16500
X23000Y-17500
X24000Y-16500
X24000Y-17500
X25000Y-16500
X25000Y-17500
X26000Y-16500
X26000Y-17500
X27000Y-16500
X27000Y-17500
X28000Y-16500
X28000Y-17500
X29000Y-16500
X29000Y-17500
X30000Y-16500
X30000Y-17500
X31000Y-16500
X31000Y-17500
X32000Y-16500
X32000Y-17500
X33000Y-16500
X33000Y-17500
X34000Y-16500
X34000Y-17500
X35000Y-16500
X35000Y-17500
X36000Y-16500
X36000Y-17500
X37000Y-16500
X37000Y-17500
X38000Y-16500
X38000Y-17500
X39000Y-16500
X39000Y-17500
X40000Y-16500
X40000Y-17500
X41000Y-16500
X41000Y-17500
X42000Y-16500
X42000Y-17500
X43000Y-16500
X43000Y-17500
X44000Y-16500
X44000Y-17500
X45000Y-16500
X45000Y-17500
X46000Y-16500
X46000Y-17500
X47000Y-16500
X47000Y-17500
X48000Y-16500
X48000Y-17500
X49000Y-16500
X49000Y-17500
X50000Y-16500
X50000Y-17500
X51000Y-16500
X51000Y-17500
X14000Y-21000
X14000Y-22000
X14000Y-23000
X14000Y-24000
X14000Y-25000
X14000Y-26000
X14000Y-27000
X14000Y-28000
X14000Y-29000
X14000Y-30000
X14000Y-31000
X14000Y-32000
X14000Y-33000
X14000Y-34000
X14000Y-35000
X14000Y-36000
X14000Y-37000
X14000Y-38000
X14000Y-39000
X14000Y-40000
X15000Y-21000
X15000Y-22000
X15000Y-23000
X15000Y-24000
X15000Y-25000
X15000Y-26000
X15000Y-27000
X15000Y-28000
X15000Y-29000
X15000Y-30000
X15000Y-31000
X15000Y-32000
X15000Y-33000
X15000Y-34000
X15000Y-35000
X15000Y-36000
X15000Y-37000
X15000Y-38000
X15000Y-39000
X15000Y-40000
X18000Y-21000
X18000Y-22000
X18000Y-23000
X18000Y-24000
X18000Y-25000
X18000Y-26000
X18000Y-27000
X18000Y-28000
X18000Y-29000
X18000Y-30000
X18000Y-31000
X18000Y-32000
X18000Y-33000
X18000Y-34000
X18000Y-35000
X18000Y-36000
X18000Y-37000
X18000Y-38000
X18000Y-39000
X18000Y-40000
X19000Y-21000
X19000Y-22000
X19000Y-23000
X19000Y-24000
X19000Y-25000
X19000Y-26000
X19000Y-27000
X19000Y-28000
X19000Y-29000
X19000Y-30000
X19000Y-31000
X19000Y-32000
X19000Y-33000
X19000Y-34000
X19000Y-35000
X19000Y-36000
X19000Y-37000
X19000Y-38000
X19000Y-39000
X19000Y-40000
T5
X47650Y-23300
X47650Y-25072
X50209Y-23300
X50209Y-25072
X47650Y-26600
X47650Y-28372
X50209Y-26600
X50209Y-28372
T3
G00X17063Y-16276
M15
G01X17063Y-16748
M16
G05
G00X19937Y-16276
M15
G01X19937Y-16748
M16
G05
T0
M30
