G04 #@! TF.GenerationSoftware,KiCad,Pcbnew,5.1.5-52549c5~84~ubuntu18.04.1*
G04 #@! TF.CreationDate,2020-01-13T08:32:07-06:00*
G04 #@! TF.ProjectId,2057-ICE40HX4K-TQ144-breakout,32303537-2d49-4434-9534-304858344b2d,rev?*
G04 #@! TF.SameCoordinates,Original*
G04 #@! TF.FileFunction,Legend,Bot*
G04 #@! TF.FilePolarity,Positive*
%FSLAX46Y46*%
G04 Gerber Fmt 4.6, Leading zero omitted, Abs format (unit mm)*
G04 Created by KiCad (PCBNEW 5.1.5-52549c5~84~ubuntu18.04.1) date 2020-01-13 08:32:07*
%MOMM*%
%LPD*%
G04 APERTURE LIST*
%ADD10C,0.150000*%
%ADD11C,2.250800*%
%ADD12R,2.250800X2.250800*%
%ADD13O,1.750800X1.750800*%
%ADD14R,1.750800X1.750800*%
%ADD15O,1.750800X2.750800*%
%ADD16O,1.150800X1.700800*%
G04 APERTURE END LIST*
D10*
X108312976Y-55062380D02*
X108646309Y-54586190D01*
X108884404Y-55062380D02*
X108884404Y-54062380D01*
X108503452Y-54062380D01*
X108408214Y-54110000D01*
X108360595Y-54157619D01*
X108312976Y-54252857D01*
X108312976Y-54395714D01*
X108360595Y-54490952D01*
X108408214Y-54538571D01*
X108503452Y-54586190D01*
X108884404Y-54586190D01*
X107503452Y-55014761D02*
X107598690Y-55062380D01*
X107789166Y-55062380D01*
X107884404Y-55014761D01*
X107932023Y-54919523D01*
X107932023Y-54538571D01*
X107884404Y-54443333D01*
X107789166Y-54395714D01*
X107598690Y-54395714D01*
X107503452Y-54443333D01*
X107455833Y-54538571D01*
X107455833Y-54633809D01*
X107932023Y-54729047D01*
X107122500Y-54395714D02*
X106884404Y-55062380D01*
X106646309Y-54395714D01*
X104979642Y-55062380D02*
X105551071Y-55062380D01*
X105265357Y-55062380D02*
X105265357Y-54062380D01*
X105360595Y-54205238D01*
X105455833Y-54300476D01*
X105551071Y-54348095D01*
X104551071Y-54967142D02*
X104503452Y-55014761D01*
X104551071Y-55062380D01*
X104598690Y-55014761D01*
X104551071Y-54967142D01*
X104551071Y-55062380D01*
X103551071Y-55062380D02*
X104122500Y-55062380D01*
X103836785Y-55062380D02*
X103836785Y-54062380D01*
X103932023Y-54205238D01*
X104027261Y-54300476D01*
X104122500Y-54348095D01*
X113392976Y-51157142D02*
X113440595Y-51204761D01*
X113583452Y-51252380D01*
X113678690Y-51252380D01*
X113821547Y-51204761D01*
X113916785Y-51109523D01*
X113964404Y-51014285D01*
X114012023Y-50823809D01*
X114012023Y-50680952D01*
X113964404Y-50490476D01*
X113916785Y-50395238D01*
X113821547Y-50300000D01*
X113678690Y-50252380D01*
X113583452Y-50252380D01*
X113440595Y-50300000D01*
X113392976Y-50347619D01*
X112821547Y-51252380D02*
X112916785Y-51204761D01*
X112964404Y-51157142D01*
X113012023Y-51061904D01*
X113012023Y-50776190D01*
X112964404Y-50680952D01*
X112916785Y-50633333D01*
X112821547Y-50585714D01*
X112678690Y-50585714D01*
X112583452Y-50633333D01*
X112535833Y-50680952D01*
X112488214Y-50776190D01*
X112488214Y-51061904D01*
X112535833Y-51157142D01*
X112583452Y-51204761D01*
X112678690Y-51252380D01*
X112821547Y-51252380D01*
X112059642Y-50585714D02*
X112059642Y-51585714D01*
X112059642Y-50633333D02*
X111964404Y-50585714D01*
X111773928Y-50585714D01*
X111678690Y-50633333D01*
X111631071Y-50680952D01*
X111583452Y-50776190D01*
X111583452Y-51061904D01*
X111631071Y-51157142D01*
X111678690Y-51204761D01*
X111773928Y-51252380D01*
X111964404Y-51252380D01*
X112059642Y-51204761D01*
X111250119Y-50585714D02*
X111012023Y-51252380D01*
X110773928Y-50585714D02*
X111012023Y-51252380D01*
X111107261Y-51490476D01*
X111154880Y-51538095D01*
X111250119Y-51585714D01*
X110392976Y-51252380D02*
X110392976Y-50585714D01*
X110392976Y-50776190D02*
X110345357Y-50680952D01*
X110297738Y-50633333D01*
X110202500Y-50585714D01*
X110107261Y-50585714D01*
X109773928Y-51252380D02*
X109773928Y-50585714D01*
X109773928Y-50252380D02*
X109821547Y-50300000D01*
X109773928Y-50347619D01*
X109726309Y-50300000D01*
X109773928Y-50252380D01*
X109773928Y-50347619D01*
X108869166Y-50585714D02*
X108869166Y-51395238D01*
X108916785Y-51490476D01*
X108964404Y-51538095D01*
X109059642Y-51585714D01*
X109202500Y-51585714D01*
X109297738Y-51538095D01*
X108869166Y-51204761D02*
X108964404Y-51252380D01*
X109154880Y-51252380D01*
X109250119Y-51204761D01*
X109297738Y-51157142D01*
X109345357Y-51061904D01*
X109345357Y-50776190D01*
X109297738Y-50680952D01*
X109250119Y-50633333D01*
X109154880Y-50585714D01*
X108964404Y-50585714D01*
X108869166Y-50633333D01*
X108392976Y-51252380D02*
X108392976Y-50252380D01*
X107964404Y-51252380D02*
X107964404Y-50728571D01*
X108012023Y-50633333D01*
X108107261Y-50585714D01*
X108250119Y-50585714D01*
X108345357Y-50633333D01*
X108392976Y-50680952D01*
X107631071Y-50585714D02*
X107250119Y-50585714D01*
X107488214Y-50252380D02*
X107488214Y-51109523D01*
X107440595Y-51204761D01*
X107345357Y-51252380D01*
X107250119Y-51252380D01*
X105345357Y-50490476D02*
X105440595Y-50442857D01*
X105631071Y-50442857D01*
X105726309Y-50490476D01*
X105821547Y-50585714D01*
X105869166Y-50680952D01*
X105869166Y-50871428D01*
X105821547Y-50966666D01*
X105726309Y-51061904D01*
X105631071Y-51109523D01*
X105440595Y-51109523D01*
X105345357Y-51061904D01*
X105535833Y-50109523D02*
X105773928Y-50157142D01*
X106012023Y-50300000D01*
X106154880Y-50538095D01*
X106202500Y-50776190D01*
X106154880Y-51014285D01*
X106012023Y-51252380D01*
X105773928Y-51395238D01*
X105535833Y-51442857D01*
X105297738Y-51395238D01*
X105059642Y-51252380D01*
X104916785Y-51014285D01*
X104869166Y-50776190D01*
X104916785Y-50538095D01*
X105059642Y-50300000D01*
X105297738Y-50157142D01*
X105535833Y-50109523D01*
X103726309Y-50347619D02*
X103678690Y-50300000D01*
X103583452Y-50252380D01*
X103345357Y-50252380D01*
X103250119Y-50300000D01*
X103202500Y-50347619D01*
X103154880Y-50442857D01*
X103154880Y-50538095D01*
X103202500Y-50680952D01*
X103773928Y-51252380D01*
X103154880Y-51252380D01*
X102535833Y-50252380D02*
X102440595Y-50252380D01*
X102345357Y-50300000D01*
X102297738Y-50347619D01*
X102250119Y-50442857D01*
X102202500Y-50633333D01*
X102202500Y-50871428D01*
X102250119Y-51061904D01*
X102297738Y-51157142D01*
X102345357Y-51204761D01*
X102440595Y-51252380D01*
X102535833Y-51252380D01*
X102631071Y-51204761D01*
X102678690Y-51157142D01*
X102726309Y-51061904D01*
X102773928Y-50871428D01*
X102773928Y-50633333D01*
X102726309Y-50442857D01*
X102678690Y-50347619D01*
X102631071Y-50300000D01*
X102535833Y-50252380D01*
X101250119Y-51252380D02*
X101821547Y-51252380D01*
X101535833Y-51252380D02*
X101535833Y-50252380D01*
X101631071Y-50395238D01*
X101726309Y-50490476D01*
X101821547Y-50538095D01*
X100773928Y-51252380D02*
X100583452Y-51252380D01*
X100488214Y-51204761D01*
X100440595Y-51157142D01*
X100345357Y-51014285D01*
X100297738Y-50823809D01*
X100297738Y-50442857D01*
X100345357Y-50347619D01*
X100392976Y-50300000D01*
X100488214Y-50252380D01*
X100678690Y-50252380D01*
X100773928Y-50300000D01*
X100821547Y-50347619D01*
X100869166Y-50442857D01*
X100869166Y-50680952D01*
X100821547Y-50776190D01*
X100773928Y-50823809D01*
X100678690Y-50871428D01*
X100488214Y-50871428D01*
X100392976Y-50823809D01*
X100345357Y-50776190D01*
X100297738Y-50680952D01*
X99821547Y-51204761D02*
X99821547Y-51252380D01*
X99869166Y-51347619D01*
X99916785Y-51395238D01*
X98678690Y-50347619D02*
X98631071Y-50300000D01*
X98535833Y-50252380D01*
X98297738Y-50252380D01*
X98202500Y-50300000D01*
X98154880Y-50347619D01*
X98107261Y-50442857D01*
X98107261Y-50538095D01*
X98154880Y-50680952D01*
X98726309Y-51252380D01*
X98107261Y-51252380D01*
X97488214Y-50252380D02*
X97392976Y-50252380D01*
X97297738Y-50300000D01*
X97250119Y-50347619D01*
X97202500Y-50442857D01*
X97154880Y-50633333D01*
X97154880Y-50871428D01*
X97202500Y-51061904D01*
X97250119Y-51157142D01*
X97297738Y-51204761D01*
X97392976Y-51252380D01*
X97488214Y-51252380D01*
X97583452Y-51204761D01*
X97631071Y-51157142D01*
X97678690Y-51061904D01*
X97726309Y-50871428D01*
X97726309Y-50633333D01*
X97678690Y-50442857D01*
X97631071Y-50347619D01*
X97583452Y-50300000D01*
X97488214Y-50252380D01*
X96773928Y-50347619D02*
X96726309Y-50300000D01*
X96631071Y-50252380D01*
X96392976Y-50252380D01*
X96297738Y-50300000D01*
X96250119Y-50347619D01*
X96202500Y-50442857D01*
X96202500Y-50538095D01*
X96250119Y-50680952D01*
X96821547Y-51252380D01*
X96202500Y-51252380D01*
X95583452Y-50252380D02*
X95488214Y-50252380D01*
X95392976Y-50300000D01*
X95345357Y-50347619D01*
X95297738Y-50442857D01*
X95250119Y-50633333D01*
X95250119Y-50871428D01*
X95297738Y-51061904D01*
X95345357Y-51157142D01*
X95392976Y-51204761D01*
X95488214Y-51252380D01*
X95583452Y-51252380D01*
X95678690Y-51204761D01*
X95726309Y-51157142D01*
X95773928Y-51061904D01*
X95821547Y-50871428D01*
X95821547Y-50633333D01*
X95773928Y-50442857D01*
X95726309Y-50347619D01*
X95678690Y-50300000D01*
X95583452Y-50252380D01*
X93773928Y-50252380D02*
X93773928Y-50966666D01*
X93821547Y-51109523D01*
X93916785Y-51204761D01*
X94059642Y-51252380D01*
X94154880Y-51252380D01*
X93154880Y-51252380D02*
X93250119Y-51204761D01*
X93297738Y-51157142D01*
X93345357Y-51061904D01*
X93345357Y-50776190D01*
X93297738Y-50680952D01*
X93250119Y-50633333D01*
X93154880Y-50585714D01*
X93012023Y-50585714D01*
X92916785Y-50633333D01*
X92869166Y-50680952D01*
X92821547Y-50776190D01*
X92821547Y-51061904D01*
X92869166Y-51157142D01*
X92916785Y-51204761D01*
X93012023Y-51252380D01*
X93154880Y-51252380D01*
X92392976Y-51252380D02*
X92392976Y-50252380D01*
X91964404Y-51252380D02*
X91964404Y-50728571D01*
X92012023Y-50633333D01*
X92107261Y-50585714D01*
X92250119Y-50585714D01*
X92345357Y-50633333D01*
X92392976Y-50680952D01*
X91488214Y-50585714D02*
X91488214Y-51252380D01*
X91488214Y-50680952D02*
X91440595Y-50633333D01*
X91345357Y-50585714D01*
X91202500Y-50585714D01*
X91107261Y-50633333D01*
X91059642Y-50728571D01*
X91059642Y-51252380D01*
X89916785Y-50252380D02*
X89678690Y-51252380D01*
X89488214Y-50538095D01*
X89297738Y-51252380D01*
X89059642Y-50252380D01*
X88678690Y-51252380D02*
X88678690Y-50585714D01*
X88678690Y-50252380D02*
X88726309Y-50300000D01*
X88678690Y-50347619D01*
X88631071Y-50300000D01*
X88678690Y-50252380D01*
X88678690Y-50347619D01*
X88202500Y-50585714D02*
X88202500Y-51252380D01*
X88202500Y-50680952D02*
X88154880Y-50633333D01*
X88059642Y-50585714D01*
X87916785Y-50585714D01*
X87821547Y-50633333D01*
X87773928Y-50728571D01*
X87773928Y-51252380D01*
X86869166Y-51252380D02*
X86869166Y-50728571D01*
X86916785Y-50633333D01*
X87012023Y-50585714D01*
X87202500Y-50585714D01*
X87297738Y-50633333D01*
X86869166Y-51204761D02*
X86964404Y-51252380D01*
X87202500Y-51252380D01*
X87297738Y-51204761D01*
X87345357Y-51109523D01*
X87345357Y-51014285D01*
X87297738Y-50919047D01*
X87202500Y-50871428D01*
X86964404Y-50871428D01*
X86869166Y-50823809D01*
X86392976Y-50585714D02*
X86392976Y-51252380D01*
X86392976Y-50680952D02*
X86345357Y-50633333D01*
X86250119Y-50585714D01*
X86107261Y-50585714D01*
X86012023Y-50633333D01*
X85964404Y-50728571D01*
X85964404Y-51252380D01*
X85535833Y-51204761D02*
X85440595Y-51252380D01*
X85250119Y-51252380D01*
X85154880Y-51204761D01*
X85107261Y-51109523D01*
X85107261Y-51061904D01*
X85154880Y-50966666D01*
X85250119Y-50919047D01*
X85392976Y-50919047D01*
X85488214Y-50871428D01*
X85535833Y-50776190D01*
X85535833Y-50728571D01*
X85488214Y-50633333D01*
X85392976Y-50585714D01*
X85250119Y-50585714D01*
X85154880Y-50633333D01*
X113964404Y-49408340D02*
X113964404Y-48408340D01*
X113535833Y-49408340D02*
X113535833Y-48884531D01*
X113583452Y-48789293D01*
X113678690Y-48741674D01*
X113821547Y-48741674D01*
X113916785Y-48789293D01*
X113964404Y-48836912D01*
X113202500Y-48741674D02*
X112821547Y-48741674D01*
X113059642Y-48408340D02*
X113059642Y-49265483D01*
X113012023Y-49360721D01*
X112916785Y-49408340D01*
X112821547Y-49408340D01*
X112631071Y-48741674D02*
X112250119Y-48741674D01*
X112488214Y-48408340D02*
X112488214Y-49265483D01*
X112440595Y-49360721D01*
X112345357Y-49408340D01*
X112250119Y-49408340D01*
X111916785Y-48741674D02*
X111916785Y-49741674D01*
X111916785Y-48789293D02*
X111821547Y-48741674D01*
X111631071Y-48741674D01*
X111535833Y-48789293D01*
X111488214Y-48836912D01*
X111440595Y-48932150D01*
X111440595Y-49217864D01*
X111488214Y-49313102D01*
X111535833Y-49360721D01*
X111631071Y-49408340D01*
X111821547Y-49408340D01*
X111916785Y-49360721D01*
X111059642Y-49360721D02*
X110964404Y-49408340D01*
X110773928Y-49408340D01*
X110678690Y-49360721D01*
X110631071Y-49265483D01*
X110631071Y-49217864D01*
X110678690Y-49122626D01*
X110773928Y-49075007D01*
X110916785Y-49075007D01*
X111012023Y-49027388D01*
X111059642Y-48932150D01*
X111059642Y-48884531D01*
X111012023Y-48789293D01*
X110916785Y-48741674D01*
X110773928Y-48741674D01*
X110678690Y-48789293D01*
X110202500Y-49313102D02*
X110154880Y-49360721D01*
X110202500Y-49408340D01*
X110250119Y-49360721D01*
X110202500Y-49313102D01*
X110202500Y-49408340D01*
X110202500Y-48789293D02*
X110154880Y-48836912D01*
X110202500Y-48884531D01*
X110250119Y-48836912D01*
X110202500Y-48789293D01*
X110202500Y-48884531D01*
X109012023Y-48360721D02*
X109869166Y-49646436D01*
X107964404Y-48360721D02*
X108821547Y-49646436D01*
X107202500Y-48741674D02*
X107202500Y-49551198D01*
X107250119Y-49646436D01*
X107297738Y-49694055D01*
X107392976Y-49741674D01*
X107535833Y-49741674D01*
X107631071Y-49694055D01*
X107202500Y-49360721D02*
X107297738Y-49408340D01*
X107488214Y-49408340D01*
X107583452Y-49360721D01*
X107631071Y-49313102D01*
X107678690Y-49217864D01*
X107678690Y-48932150D01*
X107631071Y-48836912D01*
X107583452Y-48789293D01*
X107488214Y-48741674D01*
X107297738Y-48741674D01*
X107202500Y-48789293D01*
X106726309Y-49408340D02*
X106726309Y-48741674D01*
X106726309Y-48408340D02*
X106773928Y-48455960D01*
X106726309Y-48503579D01*
X106678690Y-48455960D01*
X106726309Y-48408340D01*
X106726309Y-48503579D01*
X106392976Y-48741674D02*
X106012023Y-48741674D01*
X106250119Y-48408340D02*
X106250119Y-49265483D01*
X106202500Y-49360721D01*
X106107261Y-49408340D01*
X106012023Y-49408340D01*
X105678690Y-49408340D02*
X105678690Y-48408340D01*
X105250119Y-49408340D02*
X105250119Y-48884531D01*
X105297738Y-48789293D01*
X105392976Y-48741674D01*
X105535833Y-48741674D01*
X105631071Y-48789293D01*
X105678690Y-48836912D01*
X104345357Y-48741674D02*
X104345357Y-49408340D01*
X104773928Y-48741674D02*
X104773928Y-49265483D01*
X104726309Y-49360721D01*
X104631071Y-49408340D01*
X104488214Y-49408340D01*
X104392976Y-49360721D01*
X104345357Y-49313102D01*
X103869166Y-49408340D02*
X103869166Y-48408340D01*
X103869166Y-48789293D02*
X103773928Y-48741674D01*
X103583452Y-48741674D01*
X103488214Y-48789293D01*
X103440595Y-48836912D01*
X103392976Y-48932150D01*
X103392976Y-49217864D01*
X103440595Y-49313102D01*
X103488214Y-49360721D01*
X103583452Y-49408340D01*
X103773928Y-49408340D01*
X103869166Y-49360721D01*
X102964404Y-49313102D02*
X102916785Y-49360721D01*
X102964404Y-49408340D01*
X103012023Y-49360721D01*
X102964404Y-49313102D01*
X102964404Y-49408340D01*
X102059642Y-49360721D02*
X102154880Y-49408340D01*
X102345357Y-49408340D01*
X102440595Y-49360721D01*
X102488214Y-49313102D01*
X102535833Y-49217864D01*
X102535833Y-48932150D01*
X102488214Y-48836912D01*
X102440595Y-48789293D01*
X102345357Y-48741674D01*
X102154880Y-48741674D01*
X102059642Y-48789293D01*
X101488214Y-49408340D02*
X101583452Y-49360721D01*
X101631071Y-49313102D01*
X101678690Y-49217864D01*
X101678690Y-48932150D01*
X101631071Y-48836912D01*
X101583452Y-48789293D01*
X101488214Y-48741674D01*
X101345357Y-48741674D01*
X101250119Y-48789293D01*
X101202500Y-48836912D01*
X101154880Y-48932150D01*
X101154880Y-49217864D01*
X101202500Y-49313102D01*
X101250119Y-49360721D01*
X101345357Y-49408340D01*
X101488214Y-49408340D01*
X100726309Y-49408340D02*
X100726309Y-48741674D01*
X100726309Y-48836912D02*
X100678690Y-48789293D01*
X100583452Y-48741674D01*
X100440595Y-48741674D01*
X100345357Y-48789293D01*
X100297738Y-48884531D01*
X100297738Y-49408340D01*
X100297738Y-48884531D02*
X100250119Y-48789293D01*
X100154880Y-48741674D01*
X100012023Y-48741674D01*
X99916785Y-48789293D01*
X99869166Y-48884531D01*
X99869166Y-49408340D01*
X98678690Y-48360721D02*
X99535833Y-49646436D01*
X98345357Y-48741674D02*
X98345357Y-49598817D01*
X98392976Y-49694055D01*
X98488214Y-49741674D01*
X98535833Y-49741674D01*
X98345357Y-48408340D02*
X98392976Y-48455960D01*
X98345357Y-48503579D01*
X98297738Y-48455960D01*
X98345357Y-48408340D01*
X98345357Y-48503579D01*
X97726309Y-49408340D02*
X97821547Y-49360721D01*
X97869166Y-49313102D01*
X97916785Y-49217864D01*
X97916785Y-48932150D01*
X97869166Y-48836912D01*
X97821547Y-48789293D01*
X97726309Y-48741674D01*
X97583452Y-48741674D01*
X97488214Y-48789293D01*
X97440595Y-48836912D01*
X97392976Y-48932150D01*
X97392976Y-49217864D01*
X97440595Y-49313102D01*
X97488214Y-49360721D01*
X97583452Y-49408340D01*
X97726309Y-49408340D01*
X96964404Y-49408340D02*
X96964404Y-48408340D01*
X96535833Y-49408340D02*
X96535833Y-48884531D01*
X96583452Y-48789293D01*
X96678690Y-48741674D01*
X96821547Y-48741674D01*
X96916785Y-48789293D01*
X96964404Y-48836912D01*
X96059642Y-48741674D02*
X96059642Y-49408340D01*
X96059642Y-48836912D02*
X96012023Y-48789293D01*
X95916785Y-48741674D01*
X95773928Y-48741674D01*
X95678690Y-48789293D01*
X95631071Y-48884531D01*
X95631071Y-49408340D01*
X95250119Y-48741674D02*
X95059642Y-49408340D01*
X94869166Y-48932150D01*
X94678690Y-49408340D01*
X94488214Y-48741674D01*
X94107261Y-49408340D02*
X94107261Y-48741674D01*
X94107261Y-48408340D02*
X94154880Y-48455960D01*
X94107261Y-48503579D01*
X94059642Y-48455960D01*
X94107261Y-48408340D01*
X94107261Y-48503579D01*
X93631071Y-48741674D02*
X93631071Y-49408340D01*
X93631071Y-48836912D02*
X93583452Y-48789293D01*
X93488214Y-48741674D01*
X93345357Y-48741674D01*
X93250119Y-48789293D01*
X93202500Y-48884531D01*
X93202500Y-49408340D01*
X92297738Y-49408340D02*
X92297738Y-48884531D01*
X92345357Y-48789293D01*
X92440595Y-48741674D01*
X92631071Y-48741674D01*
X92726309Y-48789293D01*
X92297738Y-49360721D02*
X92392976Y-49408340D01*
X92631071Y-49408340D01*
X92726309Y-49360721D01*
X92773928Y-49265483D01*
X92773928Y-49170245D01*
X92726309Y-49075007D01*
X92631071Y-49027388D01*
X92392976Y-49027388D01*
X92297738Y-48979769D01*
X91821547Y-48741674D02*
X91821547Y-49408340D01*
X91821547Y-48836912D02*
X91773928Y-48789293D01*
X91678690Y-48741674D01*
X91535833Y-48741674D01*
X91440595Y-48789293D01*
X91392976Y-48884531D01*
X91392976Y-49408340D01*
X90964404Y-49360721D02*
X90869166Y-49408340D01*
X90678690Y-49408340D01*
X90583452Y-49360721D01*
X90535833Y-49265483D01*
X90535833Y-49217864D01*
X90583452Y-49122626D01*
X90678690Y-49075007D01*
X90821547Y-49075007D01*
X90916785Y-49027388D01*
X90964404Y-48932150D01*
X90964404Y-48884531D01*
X90916785Y-48789293D01*
X90821547Y-48741674D01*
X90678690Y-48741674D01*
X90583452Y-48789293D01*
X89392976Y-48360721D02*
X90250119Y-49646436D01*
X89107261Y-48503579D02*
X89059642Y-48455960D01*
X88964404Y-48408340D01*
X88726309Y-48408340D01*
X88631071Y-48455960D01*
X88583452Y-48503579D01*
X88535833Y-48598817D01*
X88535833Y-48694055D01*
X88583452Y-48836912D01*
X89154880Y-49408340D01*
X88535833Y-49408340D01*
X87916785Y-48408340D02*
X87821547Y-48408340D01*
X87726309Y-48455960D01*
X87678690Y-48503579D01*
X87631071Y-48598817D01*
X87583452Y-48789293D01*
X87583452Y-49027388D01*
X87631071Y-49217864D01*
X87678690Y-49313102D01*
X87726309Y-49360721D01*
X87821547Y-49408340D01*
X87916785Y-49408340D01*
X88012023Y-49360721D01*
X88059642Y-49313102D01*
X88107261Y-49217864D01*
X88154880Y-49027388D01*
X88154880Y-48789293D01*
X88107261Y-48598817D01*
X88059642Y-48503579D01*
X88012023Y-48455960D01*
X87916785Y-48408340D01*
X86678690Y-48408340D02*
X87154880Y-48408340D01*
X87202500Y-48884531D01*
X87154880Y-48836912D01*
X87059642Y-48789293D01*
X86821547Y-48789293D01*
X86726309Y-48836912D01*
X86678690Y-48884531D01*
X86631071Y-48979769D01*
X86631071Y-49217864D01*
X86678690Y-49313102D01*
X86726309Y-49360721D01*
X86821547Y-49408340D01*
X87059642Y-49408340D01*
X87154880Y-49360721D01*
X87202500Y-49313102D01*
X86297738Y-48408340D02*
X85631071Y-48408340D01*
X86059642Y-49408340D01*
X85250119Y-49027388D02*
X84488214Y-49027388D01*
X84012023Y-49408340D02*
X84012023Y-48408340D01*
X82964404Y-49313102D02*
X83012023Y-49360721D01*
X83154880Y-49408340D01*
X83250119Y-49408340D01*
X83392976Y-49360721D01*
X83488214Y-49265483D01*
X83535833Y-49170245D01*
X83583452Y-48979769D01*
X83583452Y-48836912D01*
X83535833Y-48646436D01*
X83488214Y-48551198D01*
X83392976Y-48455960D01*
X83250119Y-48408340D01*
X83154880Y-48408340D01*
X83012023Y-48455960D01*
X82964404Y-48503579D01*
X82535833Y-48884531D02*
X82202500Y-48884531D01*
X82059642Y-49408340D02*
X82535833Y-49408340D01*
X82535833Y-48408340D01*
X82059642Y-48408340D01*
X81202500Y-48741674D02*
X81202500Y-49408340D01*
X81440595Y-48360721D02*
X81678690Y-49075007D01*
X81059642Y-49075007D01*
X80488214Y-48408340D02*
X80392976Y-48408340D01*
X80297738Y-48455960D01*
X80250119Y-48503579D01*
X80202500Y-48598817D01*
X80154880Y-48789293D01*
X80154880Y-49027388D01*
X80202500Y-49217864D01*
X80250119Y-49313102D01*
X80297738Y-49360721D01*
X80392976Y-49408340D01*
X80488214Y-49408340D01*
X80583452Y-49360721D01*
X80631071Y-49313102D01*
X80678690Y-49217864D01*
X80726309Y-49027388D01*
X80726309Y-48789293D01*
X80678690Y-48598817D01*
X80631071Y-48503579D01*
X80583452Y-48455960D01*
X80488214Y-48408340D01*
X79726309Y-49408340D02*
X79726309Y-48408340D01*
X79726309Y-48884531D02*
X79154880Y-48884531D01*
X79154880Y-49408340D02*
X79154880Y-48408340D01*
X78773928Y-48408340D02*
X78107261Y-49408340D01*
X78107261Y-48408340D02*
X78773928Y-49408340D01*
X77297738Y-48741674D02*
X77297738Y-49408340D01*
X77535833Y-48360721D02*
X77773928Y-49075007D01*
X77154880Y-49075007D01*
X76773928Y-49408340D02*
X76773928Y-48408340D01*
X76202500Y-49408340D02*
X76631071Y-48836912D01*
X76202500Y-48408340D02*
X76773928Y-48979769D01*
X75773928Y-49027388D02*
X75012023Y-49027388D01*
X74678690Y-48408340D02*
X74107261Y-48408340D01*
X74392976Y-49408340D02*
X74392976Y-48408340D01*
X73107261Y-49503579D02*
X73202500Y-49455960D01*
X73297738Y-49360721D01*
X73440595Y-49217864D01*
X73535833Y-49170245D01*
X73631071Y-49170245D01*
X73583452Y-49408340D02*
X73678690Y-49360721D01*
X73773928Y-49265483D01*
X73821547Y-49075007D01*
X73821547Y-48741674D01*
X73773928Y-48551198D01*
X73678690Y-48455960D01*
X73583452Y-48408340D01*
X73392976Y-48408340D01*
X73297738Y-48455960D01*
X73202500Y-48551198D01*
X73154880Y-48741674D01*
X73154880Y-49075007D01*
X73202500Y-49265483D01*
X73297738Y-49360721D01*
X73392976Y-49408340D01*
X73583452Y-49408340D01*
X72202500Y-49408340D02*
X72773928Y-49408340D01*
X72488214Y-49408340D02*
X72488214Y-48408340D01*
X72583452Y-48551198D01*
X72678690Y-48646436D01*
X72773928Y-48694055D01*
X71345357Y-48741674D02*
X71345357Y-49408340D01*
X71583452Y-48360721D02*
X71821547Y-49075007D01*
X71202500Y-49075007D01*
X70392976Y-48741674D02*
X70392976Y-49408340D01*
X70631071Y-48360721D02*
X70869166Y-49075007D01*
X70250119Y-49075007D01*
X69869166Y-49027388D02*
X69107261Y-49027388D01*
X68631071Y-49408340D02*
X68631071Y-48408340D01*
X68631071Y-48789293D02*
X68535833Y-48741674D01*
X68345357Y-48741674D01*
X68250119Y-48789293D01*
X68202500Y-48836912D01*
X68154880Y-48932150D01*
X68154880Y-49217864D01*
X68202500Y-49313102D01*
X68250119Y-49360721D01*
X68345357Y-49408340D01*
X68535833Y-49408340D01*
X68631071Y-49360721D01*
X67726309Y-49408340D02*
X67726309Y-48741674D01*
X67726309Y-48932150D02*
X67678690Y-48836912D01*
X67631071Y-48789293D01*
X67535833Y-48741674D01*
X67440595Y-48741674D01*
X66726309Y-49360721D02*
X66821547Y-49408340D01*
X67012023Y-49408340D01*
X67107261Y-49360721D01*
X67154880Y-49265483D01*
X67154880Y-48884531D01*
X67107261Y-48789293D01*
X67012023Y-48741674D01*
X66821547Y-48741674D01*
X66726309Y-48789293D01*
X66678690Y-48884531D01*
X66678690Y-48979769D01*
X67154880Y-49075007D01*
X65821547Y-49408340D02*
X65821547Y-48884531D01*
X65869166Y-48789293D01*
X65964404Y-48741674D01*
X66154880Y-48741674D01*
X66250119Y-48789293D01*
X65821547Y-49360721D02*
X65916785Y-49408340D01*
X66154880Y-49408340D01*
X66250119Y-49360721D01*
X66297738Y-49265483D01*
X66297738Y-49170245D01*
X66250119Y-49075007D01*
X66154880Y-49027388D01*
X65916785Y-49027388D01*
X65821547Y-48979769D01*
X65345357Y-49408340D02*
X65345357Y-48408340D01*
X65250119Y-49027388D02*
X64964404Y-49408340D01*
X64964404Y-48741674D02*
X65345357Y-49122626D01*
X64392976Y-49408340D02*
X64488214Y-49360721D01*
X64535833Y-49313102D01*
X64583452Y-49217864D01*
X64583452Y-48932150D01*
X64535833Y-48836912D01*
X64488214Y-48789293D01*
X64392976Y-48741674D01*
X64250119Y-48741674D01*
X64154880Y-48789293D01*
X64107261Y-48836912D01*
X64059642Y-48932150D01*
X64059642Y-49217864D01*
X64107261Y-49313102D01*
X64154880Y-49360721D01*
X64250119Y-49408340D01*
X64392976Y-49408340D01*
X63202500Y-48741674D02*
X63202500Y-49408340D01*
X63631071Y-48741674D02*
X63631071Y-49265483D01*
X63583452Y-49360721D01*
X63488214Y-49408340D01*
X63345357Y-49408340D01*
X63250119Y-49360721D01*
X63202500Y-49313102D01*
X62869166Y-48741674D02*
X62488214Y-48741674D01*
X62726309Y-48408340D02*
X62726309Y-49265483D01*
X62678690Y-49360721D01*
X62583452Y-49408340D01*
X62488214Y-49408340D01*
X62154880Y-49313102D02*
X62107261Y-49360721D01*
X62154880Y-49408340D01*
X62202500Y-49360721D01*
X62154880Y-49313102D01*
X62154880Y-49408340D01*
X61250119Y-48741674D02*
X61250119Y-49551198D01*
X61297738Y-49646436D01*
X61345357Y-49694055D01*
X61440595Y-49741674D01*
X61583452Y-49741674D01*
X61678690Y-49694055D01*
X61250119Y-49360721D02*
X61345357Y-49408340D01*
X61535833Y-49408340D01*
X61631071Y-49360721D01*
X61678690Y-49313102D01*
X61726309Y-49217864D01*
X61726309Y-48932150D01*
X61678690Y-48836912D01*
X61631071Y-48789293D01*
X61535833Y-48741674D01*
X61345357Y-48741674D01*
X61250119Y-48789293D01*
X60773928Y-49408340D02*
X60773928Y-48741674D01*
X60773928Y-48408340D02*
X60821547Y-48455960D01*
X60773928Y-48503579D01*
X60726309Y-48455960D01*
X60773928Y-48408340D01*
X60773928Y-48503579D01*
X60440595Y-48741674D02*
X60059642Y-48741674D01*
X60297738Y-48408340D02*
X60297738Y-49265483D01*
X60250119Y-49360721D01*
X60154880Y-49408340D01*
X60059642Y-49408340D01*
%LPC*%
D11*
X121031000Y-72064000D03*
X127531000Y-72064000D03*
X127531000Y-67564000D03*
D12*
X121031000Y-67564000D03*
D11*
X121031000Y-63682000D03*
X127531000Y-63682000D03*
X127531000Y-59182000D03*
D12*
X121031000Y-59182000D03*
D13*
X67310000Y-90170000D03*
X64770000Y-90170000D03*
X67310000Y-87630000D03*
X64770000Y-87630000D03*
X67310000Y-85090000D03*
X64770000Y-85090000D03*
X67310000Y-82550000D03*
X64770000Y-82550000D03*
X67310000Y-80010000D03*
X64770000Y-80010000D03*
X67310000Y-77470000D03*
X64770000Y-77470000D03*
X67310000Y-74930000D03*
D14*
X64770000Y-74930000D03*
D13*
X129540000Y-41910000D03*
X129540000Y-44450000D03*
X127000000Y-41910000D03*
X127000000Y-44450000D03*
X124460000Y-41910000D03*
X124460000Y-44450000D03*
X121920000Y-41910000D03*
X121920000Y-44450000D03*
X119380000Y-41910000D03*
X119380000Y-44450000D03*
X116840000Y-41910000D03*
X116840000Y-44450000D03*
X114300000Y-41910000D03*
X114300000Y-44450000D03*
X111760000Y-41910000D03*
X111760000Y-44450000D03*
X109220000Y-41910000D03*
X109220000Y-44450000D03*
X106680000Y-41910000D03*
X106680000Y-44450000D03*
X104140000Y-41910000D03*
X104140000Y-44450000D03*
X101600000Y-41910000D03*
X101600000Y-44450000D03*
X99060000Y-41910000D03*
X99060000Y-44450000D03*
X96520000Y-41910000D03*
X96520000Y-44450000D03*
X93980000Y-41910000D03*
X93980000Y-44450000D03*
X91440000Y-41910000D03*
X91440000Y-44450000D03*
X88900000Y-41910000D03*
X88900000Y-44450000D03*
X86360000Y-41910000D03*
X86360000Y-44450000D03*
X83820000Y-41910000D03*
X83820000Y-44450000D03*
X81280000Y-41910000D03*
X81280000Y-44450000D03*
X78740000Y-41910000D03*
X78740000Y-44450000D03*
X76200000Y-41910000D03*
X76200000Y-44450000D03*
X73660000Y-41910000D03*
X73660000Y-44450000D03*
X71120000Y-41910000D03*
X71120000Y-44450000D03*
X68580000Y-41910000D03*
X68580000Y-44450000D03*
X66040000Y-41910000D03*
X66040000Y-44450000D03*
X63500000Y-41910000D03*
X63500000Y-44450000D03*
X60960000Y-41910000D03*
X60960000Y-44450000D03*
X58420000Y-41910000D03*
X58420000Y-44450000D03*
X55880000Y-41910000D03*
D14*
X55880000Y-44450000D03*
D13*
X57150000Y-50800000D03*
D14*
X54610000Y-50800000D03*
D13*
X38100000Y-101600000D03*
X35560000Y-101600000D03*
X38100000Y-99060000D03*
X35560000Y-99060000D03*
X38100000Y-96520000D03*
X35560000Y-96520000D03*
X38100000Y-93980000D03*
X35560000Y-93980000D03*
X38100000Y-91440000D03*
X35560000Y-91440000D03*
X38100000Y-88900000D03*
X35560000Y-88900000D03*
X38100000Y-86360000D03*
X35560000Y-86360000D03*
X38100000Y-83820000D03*
X35560000Y-83820000D03*
X38100000Y-81280000D03*
X35560000Y-81280000D03*
X38100000Y-78740000D03*
X35560000Y-78740000D03*
X38100000Y-76200000D03*
X35560000Y-76200000D03*
X38100000Y-73660000D03*
X35560000Y-73660000D03*
X38100000Y-71120000D03*
X35560000Y-71120000D03*
X38100000Y-68580000D03*
X35560000Y-68580000D03*
X38100000Y-66040000D03*
X35560000Y-66040000D03*
X38100000Y-63500000D03*
X35560000Y-63500000D03*
X38100000Y-60960000D03*
X35560000Y-60960000D03*
X38100000Y-58420000D03*
X35560000Y-58420000D03*
X38100000Y-55880000D03*
X35560000Y-55880000D03*
X38100000Y-53340000D03*
D14*
X35560000Y-53340000D03*
D15*
X43340000Y-41940000D03*
X50640000Y-41940000D03*
D16*
X46190000Y-45515000D03*
X47790000Y-45515000D03*
X45390000Y-47265000D03*
X48590000Y-47265000D03*
X46990000Y-47265000D03*
D13*
X48260000Y-101600000D03*
X45720000Y-101600000D03*
X48260000Y-99060000D03*
X45720000Y-99060000D03*
X48260000Y-96520000D03*
X45720000Y-96520000D03*
X48260000Y-93980000D03*
X45720000Y-93980000D03*
X48260000Y-91440000D03*
X45720000Y-91440000D03*
X48260000Y-88900000D03*
X45720000Y-88900000D03*
X48260000Y-86360000D03*
X45720000Y-86360000D03*
X48260000Y-83820000D03*
X45720000Y-83820000D03*
X48260000Y-81280000D03*
X45720000Y-81280000D03*
X48260000Y-78740000D03*
X45720000Y-78740000D03*
X48260000Y-76200000D03*
X45720000Y-76200000D03*
X48260000Y-73660000D03*
X45720000Y-73660000D03*
X48260000Y-71120000D03*
X45720000Y-71120000D03*
X48260000Y-68580000D03*
X45720000Y-68580000D03*
X48260000Y-66040000D03*
X45720000Y-66040000D03*
X48260000Y-63500000D03*
X45720000Y-63500000D03*
X48260000Y-60960000D03*
X45720000Y-60960000D03*
X48260000Y-58420000D03*
X45720000Y-58420000D03*
X48260000Y-55880000D03*
X45720000Y-55880000D03*
X48260000Y-53340000D03*
D14*
X45720000Y-53340000D03*
D13*
X129540000Y-97790000D03*
X129540000Y-100330000D03*
X127000000Y-97790000D03*
X127000000Y-100330000D03*
X124460000Y-97790000D03*
X124460000Y-100330000D03*
X121920000Y-97790000D03*
X121920000Y-100330000D03*
X119380000Y-97790000D03*
X119380000Y-100330000D03*
X116840000Y-97790000D03*
X116840000Y-100330000D03*
X114300000Y-97790000D03*
X114300000Y-100330000D03*
X111760000Y-97790000D03*
X111760000Y-100330000D03*
X109220000Y-97790000D03*
X109220000Y-100330000D03*
X106680000Y-97790000D03*
X106680000Y-100330000D03*
X104140000Y-97790000D03*
X104140000Y-100330000D03*
X101600000Y-97790000D03*
X101600000Y-100330000D03*
X99060000Y-97790000D03*
X99060000Y-100330000D03*
X96520000Y-97790000D03*
X96520000Y-100330000D03*
X93980000Y-97790000D03*
X93980000Y-100330000D03*
X91440000Y-97790000D03*
X91440000Y-100330000D03*
X88900000Y-97790000D03*
X88900000Y-100330000D03*
X86360000Y-97790000D03*
X86360000Y-100330000D03*
X83820000Y-97790000D03*
X83820000Y-100330000D03*
X81280000Y-97790000D03*
X81280000Y-100330000D03*
X78740000Y-97790000D03*
X78740000Y-100330000D03*
X76200000Y-97790000D03*
X76200000Y-100330000D03*
X73660000Y-97790000D03*
X73660000Y-100330000D03*
X71120000Y-97790000D03*
X71120000Y-100330000D03*
X68580000Y-97790000D03*
X68580000Y-100330000D03*
X66040000Y-97790000D03*
X66040000Y-100330000D03*
X63500000Y-97790000D03*
X63500000Y-100330000D03*
X60960000Y-97790000D03*
X60960000Y-100330000D03*
X58420000Y-97790000D03*
X58420000Y-100330000D03*
X55880000Y-97790000D03*
D14*
X55880000Y-100330000D03*
M02*
