G04 #@! TF.GenerationSoftware,KiCad,Pcbnew,5.1.5-52549c5~84~ubuntu18.04.1*
G04 #@! TF.CreationDate,2019-12-31T09:17:16-06:00*
G04 #@! TF.ProjectId,2057-ICE40HX4K-TQ144-breakout,32303537-2d49-4434-9534-304858344b2d,rev?*
G04 #@! TF.SameCoordinates,Original*
G04 #@! TF.FileFunction,Legend,Bot*
G04 #@! TF.FilePolarity,Positive*
%FSLAX46Y46*%
G04 Gerber Fmt 4.6, Leading zero omitted, Abs format (unit mm)*
G04 Created by KiCad (PCBNEW 5.1.5-52549c5~84~ubuntu18.04.1) date 2019-12-31 09:17:16*
%MOMM*%
%LPD*%
G04 APERTURE LIST*
%ADD10O,1.750800X1.750800*%
%ADD11R,1.750800X1.750800*%
%ADD12O,1.750800X2.750800*%
%ADD13O,1.150800X1.700800*%
G04 APERTURE END LIST*
%LPC*%
D10*
X129540000Y-41910000D03*
X129540000Y-44450000D03*
X127000000Y-41910000D03*
X127000000Y-44450000D03*
X124460000Y-41910000D03*
X124460000Y-44450000D03*
X121920000Y-41910000D03*
X121920000Y-44450000D03*
X119380000Y-41910000D03*
X119380000Y-44450000D03*
X116840000Y-41910000D03*
X116840000Y-44450000D03*
X114300000Y-41910000D03*
X114300000Y-44450000D03*
X111760000Y-41910000D03*
X111760000Y-44450000D03*
X109220000Y-41910000D03*
X109220000Y-44450000D03*
X106680000Y-41910000D03*
X106680000Y-44450000D03*
X104140000Y-41910000D03*
X104140000Y-44450000D03*
X101600000Y-41910000D03*
X101600000Y-44450000D03*
X99060000Y-41910000D03*
X99060000Y-44450000D03*
X96520000Y-41910000D03*
X96520000Y-44450000D03*
X93980000Y-41910000D03*
X93980000Y-44450000D03*
X91440000Y-41910000D03*
X91440000Y-44450000D03*
X88900000Y-41910000D03*
X88900000Y-44450000D03*
X86360000Y-41910000D03*
X86360000Y-44450000D03*
X83820000Y-41910000D03*
X83820000Y-44450000D03*
X81280000Y-41910000D03*
X81280000Y-44450000D03*
X78740000Y-41910000D03*
X78740000Y-44450000D03*
X76200000Y-41910000D03*
X76200000Y-44450000D03*
X73660000Y-41910000D03*
X73660000Y-44450000D03*
X71120000Y-41910000D03*
X71120000Y-44450000D03*
X68580000Y-41910000D03*
X68580000Y-44450000D03*
X66040000Y-41910000D03*
X66040000Y-44450000D03*
X63500000Y-41910000D03*
X63500000Y-44450000D03*
X60960000Y-41910000D03*
X60960000Y-44450000D03*
X58420000Y-41910000D03*
X58420000Y-44450000D03*
X55880000Y-41910000D03*
D11*
X55880000Y-44450000D03*
D10*
X57150000Y-53340000D03*
D11*
X54610000Y-53340000D03*
D10*
X67310000Y-91440000D03*
X64770000Y-91440000D03*
X67310000Y-88900000D03*
X64770000Y-88900000D03*
X67310000Y-86360000D03*
X64770000Y-86360000D03*
X67310000Y-83820000D03*
X64770000Y-83820000D03*
X67310000Y-81280000D03*
X64770000Y-81280000D03*
X67310000Y-78740000D03*
D11*
X64770000Y-78740000D03*
D10*
X38100000Y-101600000D03*
X35560000Y-101600000D03*
X38100000Y-99060000D03*
X35560000Y-99060000D03*
X38100000Y-96520000D03*
X35560000Y-96520000D03*
X38100000Y-93980000D03*
X35560000Y-93980000D03*
X38100000Y-91440000D03*
X35560000Y-91440000D03*
X38100000Y-88900000D03*
X35560000Y-88900000D03*
X38100000Y-86360000D03*
X35560000Y-86360000D03*
X38100000Y-83820000D03*
X35560000Y-83820000D03*
X38100000Y-81280000D03*
X35560000Y-81280000D03*
X38100000Y-78740000D03*
X35560000Y-78740000D03*
X38100000Y-76200000D03*
X35560000Y-76200000D03*
X38100000Y-73660000D03*
X35560000Y-73660000D03*
X38100000Y-71120000D03*
X35560000Y-71120000D03*
X38100000Y-68580000D03*
X35560000Y-68580000D03*
X38100000Y-66040000D03*
X35560000Y-66040000D03*
X38100000Y-63500000D03*
X35560000Y-63500000D03*
X38100000Y-60960000D03*
X35560000Y-60960000D03*
X38100000Y-58420000D03*
X35560000Y-58420000D03*
X38100000Y-55880000D03*
X35560000Y-55880000D03*
X38100000Y-53340000D03*
D11*
X35560000Y-53340000D03*
D12*
X43340000Y-41940000D03*
X50640000Y-41940000D03*
D13*
X46190000Y-45515000D03*
X47790000Y-45515000D03*
X45390000Y-47265000D03*
X48590000Y-47265000D03*
X46990000Y-47265000D03*
D10*
X48260000Y-101600000D03*
X45720000Y-101600000D03*
X48260000Y-99060000D03*
X45720000Y-99060000D03*
X48260000Y-96520000D03*
X45720000Y-96520000D03*
X48260000Y-93980000D03*
X45720000Y-93980000D03*
X48260000Y-91440000D03*
X45720000Y-91440000D03*
X48260000Y-88900000D03*
X45720000Y-88900000D03*
X48260000Y-86360000D03*
X45720000Y-86360000D03*
X48260000Y-83820000D03*
X45720000Y-83820000D03*
X48260000Y-81280000D03*
X45720000Y-81280000D03*
X48260000Y-78740000D03*
X45720000Y-78740000D03*
X48260000Y-76200000D03*
X45720000Y-76200000D03*
X48260000Y-73660000D03*
X45720000Y-73660000D03*
X48260000Y-71120000D03*
X45720000Y-71120000D03*
X48260000Y-68580000D03*
X45720000Y-68580000D03*
X48260000Y-66040000D03*
X45720000Y-66040000D03*
X48260000Y-63500000D03*
X45720000Y-63500000D03*
X48260000Y-60960000D03*
X45720000Y-60960000D03*
X48260000Y-58420000D03*
X45720000Y-58420000D03*
X48260000Y-55880000D03*
X45720000Y-55880000D03*
X48260000Y-53340000D03*
D11*
X45720000Y-53340000D03*
D10*
X129540000Y-97790000D03*
X129540000Y-100330000D03*
X127000000Y-97790000D03*
X127000000Y-100330000D03*
X124460000Y-97790000D03*
X124460000Y-100330000D03*
X121920000Y-97790000D03*
X121920000Y-100330000D03*
X119380000Y-97790000D03*
X119380000Y-100330000D03*
X116840000Y-97790000D03*
X116840000Y-100330000D03*
X114300000Y-97790000D03*
X114300000Y-100330000D03*
X111760000Y-97790000D03*
X111760000Y-100330000D03*
X109220000Y-97790000D03*
X109220000Y-100330000D03*
X106680000Y-97790000D03*
X106680000Y-100330000D03*
X104140000Y-97790000D03*
X104140000Y-100330000D03*
X101600000Y-97790000D03*
X101600000Y-100330000D03*
X99060000Y-97790000D03*
X99060000Y-100330000D03*
X96520000Y-97790000D03*
X96520000Y-100330000D03*
X93980000Y-97790000D03*
X93980000Y-100330000D03*
X91440000Y-97790000D03*
X91440000Y-100330000D03*
X88900000Y-97790000D03*
X88900000Y-100330000D03*
X86360000Y-97790000D03*
X86360000Y-100330000D03*
X83820000Y-97790000D03*
X83820000Y-100330000D03*
X81280000Y-97790000D03*
X81280000Y-100330000D03*
X78740000Y-97790000D03*
X78740000Y-100330000D03*
X76200000Y-97790000D03*
X76200000Y-100330000D03*
X73660000Y-97790000D03*
X73660000Y-100330000D03*
X71120000Y-97790000D03*
X71120000Y-100330000D03*
X68580000Y-97790000D03*
X68580000Y-100330000D03*
X66040000Y-97790000D03*
X66040000Y-100330000D03*
X63500000Y-97790000D03*
X63500000Y-100330000D03*
X60960000Y-97790000D03*
X60960000Y-100330000D03*
X58420000Y-97790000D03*
X58420000Y-100330000D03*
X55880000Y-97790000D03*
D11*
X55880000Y-100330000D03*
M02*
